<svg version="1.1" xmlns="http://www.w3.org/2000/svg" viewBox="0 0 635.5999984741211 523" width="1271.1999969482422" height="1046">
  <!-- svg-source:excalidraw -->
  
  <defs>
    <style class="style-fonts">
      @font-face {
        font-family: "Virgil";
        src: url("https://excalidraw.com/Virgil.woff2");
      }
      @font-face {
        font-family: "Cascadia";
        src: url("https://excalidraw.com/Cascadia.woff2");
      }
      @font-face {
        font-family: "Assistant";
        src: url("https://excalidraw.com/Assistant-Regular.woff2");
      }
    </style>
    
  </defs>
  <rect x="0" y="0" width="635.5999984741211" height="523" fill="#ffffff"></rect><g stroke-linecap="round" transform="translate(164.79999923706055 12) rotate(0 59 38)"><path d="M19 0 C42.09 -0.84, 64.8 1.55, 99 0 M19 0 C45.84 -0.33, 72.64 -0.18, 99 0 M99 0 C111.09 -1.05, 118.15 7.2, 118 19 M99 0 C112.56 2.27, 116.51 8.42, 118 19 M118 19 C118.76 31.78, 119.6 44.6, 118 57 M118 19 C118.73 31.86, 117.98 43.35, 118 57 M118 57 C117.22 71.48, 112.79 74.19, 99 76 M118 57 C118.26 69.69, 110.1 75.95, 99 76 M99 76 C69.9 77.03, 39.92 75.67, 19 76 M99 76 C71.91 76.79, 45.71 75.9, 19 76 M19 76 C8.14 77.19, 0.93 70.59, 0 57 M19 76 C8.58 74.75, -1.35 69.43, 0 57 M0 57 C-0.29 40.39, 1.09 26.5, 0 19 M0 57 C0.61 42.54, 1.26 28.53, 0 19 M0 19 C-1.6 7.1, 6.42 -1.25, 19 0 M0 19 C-2.12 8.6, 8.06 2.18, 19 0" stroke="#1e1e1e" stroke-width="2" fill="none"></path></g><g transform="translate(178.8666648864746 37.5) rotate(0 44.93333435058594 12.5)"><text x="44.93333435058594" y="17.52" font-family="Virgil, Segoe UI Emoji" font-size="20px" fill="#1e1e1e" text-anchor="middle" style="white-space: pre;" direction="ltr" dominant-baseline="alphabetic">Homepage</text></g><g stroke-linecap="round" transform="translate(404.79999923706055 10) rotate(0 59 55)"><path d="M27.5 0 C45.88 -1.92, 67.51 -1, 90.5 0 M27.5 0 C40.85 1.08, 53.98 0.92, 90.5 0 M90.5 0 C109.95 0.39, 118.2 11.06, 118 27.5 M90.5 0 C108.54 -0.19, 119.58 8.44, 118 27.5 M118 27.5 C117.36 49.23, 118.35 70.29, 118 82.5 M118 27.5 C116.77 40.96, 117.21 55.42, 118 82.5 M118 82.5 C119.78 99.63, 107.34 109.98, 90.5 110 M118 82.5 C116.73 100.72, 109.29 109.66, 90.5 110 M90.5 110 C67.63 109.93, 48.35 107.67, 27.5 110 M90.5 110 C68.73 110.94, 47.13 109.15, 27.5 110 M27.5 110 C7.76 109.49, 1.81 100.6, 0 82.5 M27.5 110 C11.08 109.13, -1.65 103.05, 0 82.5 M0 82.5 C-1.26 68.23, 1.21 57.34, 0 27.5 M0 82.5 C0.73 69.89, -0.26 55.92, 0 27.5 M0 27.5 C-1.79 10.34, 9.34 1.83, 27.5 0 M0 27.5 C-0.09 9.11, 9.07 1.43, 27.5 0" stroke="#1e1e1e" stroke-width="2" fill="none"></path></g><g transform="translate(411.06666564941406 15) rotate(0 52.733333587646484 50)"><text x="52.733333587646484" y="17.52" font-family="Virgil, Segoe UI Emoji" font-size="20px" fill="#1e1e1e" text-anchor="middle" style="white-space: pre;" direction="ltr" dominant-baseline="alphabetic">Wait for </text><text x="52.733333587646484" y="42.519999999999996" font-family="Virgil, Segoe UI Emoji" font-size="20px" fill="#1e1e1e" text-anchor="middle" style="white-space: pre;" direction="ltr" dominant-baseline="alphabetic">new </text><text x="52.733333587646484" y="67.52" font-family="Virgil, Segoe UI Emoji" font-size="20px" fill="#1e1e1e" text-anchor="middle" style="white-space: pre;" direction="ltr" dominant-baseline="alphabetic">credential </text><text x="52.733333587646484" y="92.52" font-family="Virgil, Segoe UI Emoji" font-size="20px" fill="#1e1e1e" text-anchor="middle" style="white-space: pre;" direction="ltr" dominant-baseline="alphabetic">submission</text></g><g stroke-linecap="round" transform="translate(159.79999923706055 242) rotate(0 59 55)"><path d="M27.5 0 C52.56 0.29, 75.91 1.19, 90.5 0 M27.5 0 C47.21 0.2, 66.48 0.89, 90.5 0 M90.5 0 C107.64 -1.9, 117.09 10.84, 118 27.5 M90.5 0 C107.37 -0.6, 117.83 7.32, 118 27.5 M118 27.5 C119.21 41.16, 117.57 55.35, 118 82.5 M118 27.5 C117.78 41.72, 118.11 55.49, 118 82.5 M118 82.5 C117.73 101.74, 108.14 111.74, 90.5 110 M118 82.5 C117.55 102.77, 110.11 111.27, 90.5 110 M90.5 110 C72.74 110.51, 50.53 108.71, 27.5 110 M90.5 110 C74.84 110.93, 58.76 109.84, 27.5 110 M27.5 110 C8.08 110.65, 0.02 101.84, 0 82.5 M27.5 110 C9.74 110.02, -1.98 99, 0 82.5 M0 82.5 C1.28 62.62, 1.41 45.66, 0 27.5 M0 82.5 C0.25 65.61, 0.8 47.8, 0 27.5 M0 27.5 C-1.2 8.12, 10.76 0.49, 27.5 0 M0 27.5 C-2.22 7.45, 7.69 1.11, 27.5 0" stroke="#1e1e1e" stroke-width="2" fill="none"></path></g><g transform="translate(166.06666564941406 247) rotate(0 52.733333587646484 50)"><text x="52.733333587646484" y="17.52" font-family="Virgil, Segoe UI Emoji" font-size="20px" fill="#1e1e1e" text-anchor="middle" style="white-space: pre;" direction="ltr" dominant-baseline="alphabetic">Wait for </text><text x="52.733333587646484" y="42.519999999999996" font-family="Virgil, Segoe UI Emoji" font-size="20px" fill="#1e1e1e" text-anchor="middle" style="white-space: pre;" direction="ltr" dominant-baseline="alphabetic">existing </text><text x="52.733333587646484" y="67.52" font-family="Virgil, Segoe UI Emoji" font-size="20px" fill="#1e1e1e" text-anchor="middle" style="white-space: pre;" direction="ltr" dominant-baseline="alphabetic">credential </text><text x="52.733333587646484" y="92.52" font-family="Virgil, Segoe UI Emoji" font-size="20px" fill="#1e1e1e" text-anchor="middle" style="white-space: pre;" direction="ltr" dominant-baseline="alphabetic">submission</text></g><g mask="url(#mask-Xj-uDcTLKNpuEqbh-Qf1c)" stroke-linecap="round"><g transform="translate(287.79999923706055 49) rotate(0 61.5 0)"><path d="M-0.77 -0.84 C19.77 -0.82, 102.09 0.79, 122.65 0.97 M1.03 1.33 C21.42 0.96, 101.42 -0.7, 121.51 -0.65" stroke="#1e1e1e" stroke-width="2" fill="none"></path></g><g transform="translate(287.79999923706055 49) rotate(0 61.5 0)"><path d="M98.11 8.15 C102.58 5.48, 111.53 3.11, 121.51 -0.65 M98.11 8.15 C105 5.47, 112.31 1.48, 121.51 -0.65" stroke="#1e1e1e" stroke-width="2" fill="none"></path></g><g transform="translate(287.79999923706055 49) rotate(0 61.5 0)"><path d="M97.93 -8.95 C102.56 -7.28, 111.56 -5.31, 121.51 -0.65 M97.93 -8.95 C104.99 -6.21, 112.35 -4.78, 121.51 -0.65" stroke="#1e1e1e" stroke-width="2" fill="none"></path></g></g><mask id="mask-Xj-uDcTLKNpuEqbh-Qf1c"><rect x="0" y="0" fill="#fff" width="510.79999923706055" height="149"></rect><rect x="321.38333320617676" y="36.5" fill="#000" width="55.83333206176758" height="25" opacity="1"></rect></mask><g transform="translate(321.38333320617676 36.5) rotate(0 27.35528676733375 12.744294048366143)"><text x="27.91666603088379" y="17.52" font-family="Virgil, Segoe UI Emoji" font-size="20px" fill="#1e1e1e" text-anchor="middle" style="white-space: pre;" direction="ltr" dominant-baseline="alphabetic">signup</text></g><g mask="url(#mask-jyBg_6NflOueXjAn15X7X)" stroke-linecap="round"><g transform="translate(219.3610855619035 89) rotate(0 -1.4356649299802768 76.00000000000003)"><path d="M-0.9 -0.63 C-1.31 24.96, -3.24 127.21, -3.59 152.77 M0.83 1.65 C0.91 26.98, -0.47 126.2, -1.26 151.06" stroke="#1e1e1e" stroke-width="2" fill="none"></path></g><g transform="translate(219.3610855619035 89) rotate(0 -1.4356649299802768 76.00000000000003)"><path d="M-9.31 127.39 C-8.88 131.06, -4.91 136.81, -1.26 151.06 M-9.31 127.39 C-7.5 135.27, -4.54 145.44, -1.26 151.06" stroke="#1e1e1e" stroke-width="2" fill="none"></path></g><g transform="translate(219.3610855619035 89) rotate(0 -1.4356649299802768 76.00000000000003)"><path d="M7.79 127.75 C4.74 131.21, 5.25 136.89, -1.26 151.06 M7.79 127.75 C3.4 135.47, 0.17 145.51, -1.26 151.06" stroke="#1e1e1e" stroke-width="2" fill="none"></path></g></g><mask id="mask-jyBg_6NflOueXjAn15X7X"><rect x="0" y="0" fill="#fff" width="322.23241542186406" height="341.00000000000006"></rect><rect x="127.0920847554583" y="140" fill="#000" width="181.6666717529297" height="50" opacity="1"></rect></mask><g transform="translate(127.09208475545836 140) rotate(0 90.88902609067247 25.070443210750852)"><text x="90.83333587646484" y="17.52" font-family="Virgil, Segoe UI Emoji" font-size="20px" fill="#1e1e1e" text-anchor="middle" style="white-space: pre;" direction="ltr" dominant-baseline="alphabetic">Enter username / </text><text x="90.83333587646484" y="42.519999999999996" font-family="Virgil, Segoe UI Emoji" font-size="20px" fill="#1e1e1e" text-anchor="middle" style="white-space: pre;" direction="ltr" dominant-baseline="alphabetic">password</text></g><g stroke-linecap="round" transform="translate(162.79999923706055 434) rotate(0 59 38)"><path d="M19 0 C44.37 1.71, 67.38 0.93, 99 0 M19 0 C49.68 -0.64, 78.79 0.46, 99 0 M99 0 C109.9 0.4, 118 6.55, 118 19 M99 0 C109.93 -2.01, 115.94 4.48, 118 19 M118 19 C118.27 30.87, 116.35 45.48, 118 57 M118 19 C118.6 28.71, 117.95 38, 118 57 M118 57 C117.77 71.31, 112.11 76.05, 99 76 M118 57 C116.01 67.9, 113.94 77.98, 99 76 M99 76 C83.58 74.55, 68.1 77.55, 19 76 M99 76 C68.59 75.61, 36.37 77.23, 19 76 M19 76 C7.17 77.47, 0.87 71.34, 0 57 M19 76 C5.63 78.09, 0.26 68.33, 0 57 M0 57 C1.15 41.34, 2.17 28.24, 0 19 M0 57 C0.08 45.65, -0.99 33.73, 0 19 M0 19 C-1.2 7.48, 5.11 1.9, 19 0 M0 19 C-1.03 5.26, 8.18 0.9, 19 0" stroke="#1e1e1e" stroke-width="2" fill="none"></path></g><g transform="translate(169.31666564941406 447) rotate(0 52.483333587646484 25)"><text x="52.483333587646484" y="17.52" font-family="Virgil, Segoe UI Emoji" font-size="20px" fill="#1e1e1e" text-anchor="middle" style="white-space: pre;" direction="ltr" dominant-baseline="alphabetic">Authentica</text><text x="52.483333587646484" y="42.519999999999996" font-family="Virgil, Segoe UI Emoji" font-size="20px" fill="#1e1e1e" text-anchor="middle" style="white-space: pre;" direction="ltr" dominant-baseline="alphabetic">te</text></g><g mask="url(#mask-Z5X2fs3sESbrTGvcOcLdL)" stroke-linecap="round"><g transform="translate(217.53965397976611 353) rotate(0 -0.1935241149120941 40)"><path d="M-0.54 -0.44 C-0.94 13.22, -1.3 67.32, -1.41 80.79 M1.37 -1.72 C1.25 11.71, 0.78 65.76, 0.77 79.09" stroke="#1e1e1e" stroke-width="2" fill="none"></path></g><g transform="translate(217.53965397976611 353) rotate(0 -0.1935241149120941 40)"><path d="M-7.66 55.55 C-5.39 62.89, -0.11 72.26, 0.77 79.09 M-7.66 55.55 C-3.7 63.66, -1.1 70.92, 0.77 79.09" stroke="#1e1e1e" stroke-width="2" fill="none"></path></g><g transform="translate(217.53965397976611 353) rotate(0 -0.1935241149120941 40)"><path d="M9.45 55.64 C5.17 62.87, 3.9 72.21, 0.77 79.09 M9.45 55.64 C7.7 63.84, 4.6 71.06, 0.77 79.09" stroke="#1e1e1e" stroke-width="2" fill="none"></path></g></g><mask id="mask-Z5X2fs3sESbrTGvcOcLdL"><rect x="0" y="0" fill="#fff" width="317.9267022095903" height="533"></rect><rect x="197.31279704014702" y="380.5" fill="#000" width="40.06666564941406" height="25" opacity="1"></rect></mask><g transform="translate(197.31279704014696 380.5) rotate(0 20.208904486573346 12.03968994671942)"><text x="20.03333282470703" y="17.52" font-family="Virgil, Segoe UI Emoji" font-size="20px" fill="#1e1e1e" text-anchor="middle" style="white-space: pre;" direction="ltr" dominant-baseline="alphabetic">login</text></g><g mask="url(#mask-uWZNXCxgQVm_3c-nRDKAs)" stroke-linecap="round"><g transform="translate(162.79999923706055 469) rotate(0 -60.5 -209)"><path d="M-0.36 -0.96 C-20.24 -51.07, -120.32 -231.38, -120.3 -300.79 C-120.28 -370.2, -20.16 -398, -0.24 -417.44 M1.65 1.14 C-18.24 -48.82, -120.42 -229.56, -120.88 -299.67 C-121.35 -369.78, -21.12 -399.48, -1.14 -419.49" stroke="#1e1e1e" stroke-width="2" fill="none"></path></g><g transform="translate(162.79999923706055 469) rotate(0 -60.5 -209)"><path d="M-16.64 -399.88 C-14.86 -402.92, -11.21 -408.75, -1.14 -419.49 M-16.64 -399.88 C-11.95 -406.94, -6.19 -412.85, -1.14 -419.49" stroke="#1e1e1e" stroke-width="2" fill="none"></path></g><g transform="translate(162.79999923706055 469) rotate(0 -60.5 -209)"><path d="M-25.62 -414.43 C-21.91 -414.29, -16.31 -416.96, -1.14 -419.49 M-25.62 -414.43 C-17.91 -416.49, -9.05 -417.36, -1.14 -419.49" stroke="#1e1e1e" stroke-width="2" fill="none"></path></g></g><mask id="mask-uWZNXCxgQVm_3c-nRDKAs"><rect x="0" y="0" fill="#fff" width="383.79999923706055" height="987"></rect><rect x="10" y="156.5" fill="#000" width="63.599998474121094" height="25" opacity="1"></rect></mask><g transform="translate(10 156.5) rotate(0 93.18484468864617 103.32544880901463)"><text x="31.799999237060547" y="17.52" font-family="Virgil, Segoe UI Emoji" font-size="20px" fill="#1e1e1e" text-anchor="middle" style="white-space: pre;" direction="ltr" dominant-baseline="alphabetic">failure</text></g><g stroke-linecap="round" transform="translate(404.79999923706055 428) rotate(0 59 42.5)"><path d="M21.25 0 C39.99 -1.73, 57.17 1.11, 96.75 0 M21.25 0 C37.18 -0.91, 53.1 0.8, 96.75 0 M96.75 0 C111.53 1.74, 119.22 8.61, 118 21.25 M96.75 0 C112.64 -2.11, 117.47 7.53, 118 21.25 M118 21.25 C115.97 36.75, 116.45 53.58, 118 63.75 M118 21.25 C118.56 29.3, 117.47 39.2, 118 63.75 M118 63.75 C119.4 77.37, 112.27 83.51, 96.75 85 M118 63.75 C119.73 75.71, 112.52 84.16, 96.75 85 M96.75 85 C66.91 83.83, 37.26 84.97, 21.25 85 M96.75 85 C80.43 83.34, 65.63 85.09, 21.25 85 M21.25 85 C5.09 84.81, -1.92 79.08, 0 63.75 M21.25 85 C5.4 86.14, -0.58 77.48, 0 63.75 M0 63.75 C-1.5 50.37, 1.02 40.8, 0 21.25 M0 63.75 C0.79 53.76, 0.8 44.08, 0 21.25 M0 21.25 C-0.45 7.29, 7.68 -1.85, 21.25 0 M0 21.25 C0.25 5.29, 5.08 -0.58, 21.25 0" stroke="#1e1e1e" stroke-width="2" fill="none"></path></g><g transform="translate(414.04999923706055 433) rotate(0 49.75 37.5)"><text x="49.75" y="17.52" font-family="Virgil, Segoe UI Emoji" font-size="20px" fill="#1e1e1e" text-anchor="middle" style="white-space: pre;" direction="ltr" dominant-baseline="alphabetic">App </text><text x="49.75" y="42.519999999999996" font-family="Virgil, Segoe UI Emoji" font-size="20px" fill="#1e1e1e" text-anchor="middle" style="white-space: pre;" direction="ltr" dominant-baseline="alphabetic">functionali</text><text x="49.75" y="67.52" font-family="Virgil, Segoe UI Emoji" font-size="20px" fill="#1e1e1e" text-anchor="middle" style="white-space: pre;" direction="ltr" dominant-baseline="alphabetic">ty</text></g><g mask="url(#mask-E0Usvh9Vc7bip5RxKkq9x)" stroke-linecap="round"><g transform="translate(283.79999923706055 473) rotate(0 61.5 0)"><path d="M-1.07 1.17 C19.29 1.14, 102.69 0.75, 123.4 0.68 M0.57 0.75 C20.7 0.29, 102.34 -0.77, 122.65 -1.08" stroke="#1e1e1e" stroke-width="2" fill="none"></path></g><g transform="translate(283.79999923706055 473) rotate(0 61.5 0)"><path d="M99.29 7.8 C110.51 5.12, 119.02 1.13, 122.65 -1.08 M99.29 7.8 C107.3 3.83, 115.51 0.37, 122.65 -1.08" stroke="#1e1e1e" stroke-width="2" fill="none"></path></g><g transform="translate(283.79999923706055 473) rotate(0 61.5 0)"><path d="M99.04 -9.3 C110.49 -5.15, 119.1 -2.31, 122.65 -1.08 M99.04 -9.3 C107.18 -7.03, 115.47 -4.24, 122.65 -1.08" stroke="#1e1e1e" stroke-width="2" fill="none"></path></g></g><mask id="mask-E0Usvh9Vc7bip5RxKkq9x"><rect x="0" y="0" fill="#fff" width="506.79999923706055" height="573"></rect><rect x="307.81666564941406" y="460.5" fill="#000" width="74.96666717529297" height="25" opacity="1"></rect></mask><g transform="translate(307.81666564941406 460.5) rotate(0 37.14481413587927 12.544942640331556)"><text x="37.483333587646484" y="17.52" font-family="Virgil, Segoe UI Emoji" font-size="20px" fill="#1e1e1e" text-anchor="middle" style="white-space: pre;" direction="ltr" dominant-baseline="alphabetic">success</text></g><g stroke-linecap="round" transform="translate(406.79999923706055 253) rotate(0 59 38)"><path d="M19 0 C39.12 -0.56, 62.14 1.39, 99 0 M19 0 C41.7 1.24, 62.59 1.22, 99 0 M99 0 C111.6 0.99, 119.36 4.77, 118 19 M99 0 C112.1 1.15, 119.59 6.73, 118 19 M118 19 C118.17 33.11, 118.1 48.8, 118 57 M118 19 C118.98 31.2, 118.28 42.05, 118 57 M118 57 C117.18 71.63, 112.66 74.7, 99 76 M118 57 C116.79 68.24, 113.44 77.06, 99 76 M99 76 C81.44 74.89, 61.45 73.95, 19 76 M99 76 C80.05 75.8, 60.15 75.95, 19 76 M19 76 C4.96 75.66, 1.81 70.2, 0 57 M19 76 C5.45 76.56, -1.89 70.23, 0 57 M0 57 C-2.03 43.19, -0.42 32.56, 0 19 M0 57 C0.31 42.94, -0.59 29.17, 0 19 M0 19 C1.98 5.41, 6.87 1.61, 19 0 M0 19 C-1.63 5.04, 7.98 1.35, 19 0" stroke="#1e1e1e" stroke-width="2" fill="none"></path></g><g transform="translate(425.68333435058594 278.5) rotate(0 40.11666488647461 12.5)"><text x="40.11666488647461" y="17.52" font-family="Virgil, Segoe UI Emoji" font-size="20px" fill="#1e1e1e" text-anchor="middle" style="white-space: pre;" direction="ltr" dominant-baseline="alphabetic">Validate</text></g><g mask="url(#mask-zpwbrUVByY_vEIqslN8zr)" stroke-linecap="round"><g transform="translate(464.2356641670409 124.9295567892492) rotate(0 0.06433507001969474 61.00000000000003)"><path d="M0.78 0.66 C0.73 20.96, -0.04 102.47, -0.11 122.68 M-0.27 -0.03 C-0.52 19.84, -1.18 100.37, -1.18 120.91" stroke="#1e1e1e" stroke-width="2" fill="none"></path></g><g transform="translate(464.2356641670409 124.9295567892492) rotate(0 0.06433507001969474 61.00000000000003)"><path d="M-9.62 97.38 C-5.68 104.33, -3 112.52, -1.18 120.91 M-9.62 97.38 C-6.96 103.28, -3.9 110.23, -1.18 120.91" stroke="#1e1e1e" stroke-width="2" fill="none"></path></g><g transform="translate(464.2356641670409 124.9295567892492) rotate(0 0.06433507001969474 61.00000000000003)"><path d="M7.48 97.46 C6.04 104.5, 3.33 112.66, -1.18 120.91 M7.48 97.46 C5.14 103.43, 3.2 110.36, -1.18 120.91" stroke="#1e1e1e" stroke-width="2" fill="none"></path></g></g><mask id="mask-zpwbrUVByY_vEIqslN8zr"><rect x="0" y="0" fill="#fff" width="564.3643343070803" height="346.92955678924926"></rect><rect x="372.2166633605957" y="160.9295567892492" fill="#000" width="184.1666717529297" height="50" opacity="1"></rect></mask><g transform="translate(372.2166633605957 160.9295567892492) rotate(0 91.81597093667375 25.32240716141183)"><text x="92.08333587646484" y="17.52" font-family="Virgil, Segoe UI Emoji" font-size="20px" fill="#1e1e1e" text-anchor="middle" style="white-space: pre;" direction="ltr" dominant-baseline="alphabetic">Enter username + </text><text x="92.08333587646484" y="42.519999999999996" font-family="Virgil, Segoe UI Emoji" font-size="20px" fill="#1e1e1e" text-anchor="middle" style="white-space: pre;" direction="ltr" dominant-baseline="alphabetic">password</text></g><g mask="url(#mask-BcAGoU4iX8qqt0LXHQio2)" stroke-linecap="round"><g transform="translate(409.79999923706055 258) rotate(0 -62.5 -91.5)"><path d="M0.97 -0.42 C-9.93 -9.05, -45.78 -21.77, -66.59 -52.19 C-87.4 -82.61, -114.32 -161.1, -123.87 -182.93 M0.02 -1.68 C-10.9 -10.18, -46.65 -21.3, -67.32 -51.28 C-88 -81.26, -114.14 -159.76, -124.04 -181.58" stroke="#1e1e1e" stroke-width="2" fill="none"></path></g><g transform="translate(409.79999923706055 258) rotate(0 -62.5 -91.5)"><path d="M-107.44 -162.89 C-111.43 -165.85, -116.08 -168.43, -124.04 -181.58 M-107.44 -162.89 C-112.97 -169.62, -117.99 -173.45, -124.04 -181.58" stroke="#1e1e1e" stroke-width="2" fill="none"></path></g><g transform="translate(409.79999923706055 258) rotate(0 -62.5 -91.5)"><path d="M-123.34 -156.59 C-124.09 -160.96, -125.53 -164.81, -124.04 -181.58 M-123.34 -156.59 C-124.07 -165.22, -124.23 -170.97, -124.04 -181.58" stroke="#1e1e1e" stroke-width="2" fill="none"></path></g></g><mask id="mask-BcAGoU4iX8qqt0LXHQio2"><rect x="0" y="0" fill="#fff" width="634.7999992370605" height="541"></rect><rect x="305.31666564941406" y="194.5" fill="#000" width="74.96666717529297" height="25" opacity="1"></rect></mask><g transform="translate(305.31666564941406 194.5) rotate(0 42.951517200148686 -28.174896512180567)"><text x="37.483333587646484" y="17.52" font-family="Virgil, Segoe UI Emoji" font-size="20px" fill="#1e1e1e" text-anchor="middle" style="white-space: pre;" direction="ltr" dominant-baseline="alphabetic">success</text></g><g mask="url(#mask-Gl9Y062nb9Eh1y7lQqiiT)" stroke-linecap="round"><g transform="translate(524.7999992370605 297) rotate(0 34 -119.5)"><path d="M1.09 0.27 C12.69 -24.84, 69.09 -111.55, 68.68 -151.37 C68.28 -191.19, 10.28 -224.08, -1.36 -238.65 M0.2 -0.63 C11.7 -26.04, 67.99 -113.13, 67.57 -153.16 C67.15 -193.19, 9.11 -226.74, -2.31 -240.81" stroke="#1e1e1e" stroke-width="2" fill="none"></path></g><g transform="translate(524.7999992370605 297) rotate(0 34 -119.5)"><path d="M20.99 -231.76 C16.3 -234.09, 11.69 -236.18, -2.31 -240.81 M20.99 -231.76 C12.73 -235.13, 6 -237.01, -2.31 -240.81" stroke="#1e1e1e" stroke-width="2" fill="none"></path></g><g transform="translate(524.7999992370605 297) rotate(0 34 -119.5)"><path d="M9.72 -218.89 C7.62 -224.2, 5.52 -229.17, -2.31 -240.81 M9.72 -218.89 C5.19 -226.52, 2.16 -232.64, -2.31 -240.81" stroke="#1e1e1e" stroke-width="2" fill="none"></path></g></g><mask id="mask-Gl9Y062nb9Eh1y7lQqiiT"><rect x="0" y="0" fill="#fff" width="694.7999992370605" height="636"></rect><rect x="562" y="132.5" fill="#000" width="63.599998474121094" height="25" opacity="1"></rect></mask><g transform="translate(562 132.5) rotate(0 -4.011596120313186 44.233901139912206)"><text x="31.799999237060547" y="17.52" font-family="Virgil, Segoe UI Emoji" font-size="20px" fill="#1e1e1e" text-anchor="middle" style="white-space: pre;" direction="ltr" dominant-baseline="alphabetic">failure</text></g></svg>